<svg xmlns="http://www.w3.org/2000/svg" viewBox="0 0 64 64">
  <defs>
    <linearGradient id="g" x1="0%" y1="0%" x2="100%" y2="100%">
      <stop offset="0%" stop-color="#6366f1"/>
      <stop offset="100%" stop-color="#4f46e5"/>
    </linearGradient>
  </defs>
  <rect width="64" height="64" rx="14" fill="url(#g)"/>
  <g transform="translate(32,32)" fill="none" stroke="white" stroke-width="2.5" stroke-linecap="round" stroke-linejoin="round">
    <!-- Wrench -->
    <path d="M-14,-6 L-4,4 L-1,1 L-11,-9 C-9,-13 -5,-15 -1,-14 C3,-13 5,-9 4,-5 L14,5 C15,6 15,8 14,9 L9,14 C8,15 6,15 5,14 L-5,4 C-9,5 -13,3 -14,-1 C-15,-5 -13,-9 -14,-6Z" fill="white" fill-opacity="0.9" stroke="none"/>
    <!-- Gear -->
    <circle cx="6" cy="-6" r="4" fill="url(#g)" stroke="white" stroke-width="2"/>
    <circle cx="6" cy="-6" r="7" fill="none" stroke="white" stroke-width="2" stroke-dasharray="3.5 3.5"/>
  </g>
</svg>
